<?xml version="1.0" encoding="utf-8"?>
<!-- Svg Vector Icons : http://www.onlinewebfonts.com/icon -->
<!DOCTYPE svg PUBLIC "-//W3C//DTD SVG 1.1//EN" "http://www.w3.org/Graphics/SVG/1.1/DTD/svg11.dtd">
<svg version="1.1" xmlns="http://www.w3.org/2000/svg" xmlns:xlink="http://www.w3.org/1999/xlink" x="0px" y="0px" viewBox="0 0 1000 1000" enable-background="new 0 0 1000 1000" xml:space="preserve">
<metadata> Svg Vector Icons : http://www.onlinewebfonts.com/icon </metadata>
<g><g transform="translate(0.000000,511.000000) scale(0.100000,-0.100000)"><path d="M3845.8,4351L3278,3689.4l71-55.8c40.6-30.4,372.6-291.5,740.2-580.5c367.5-291.5,679.3-519.6,692-512c12.7,7.6,98.9,109,190.1,228.1c142,182.5,164.8,223.1,134.3,248.4c-20.3,17.8-164.7,131.8-319.4,253.5c-157.1,124.2-286.4,228.1-286.4,235.7c0,7.6,207.9,7.6,463.9,0c646.4-20.3,1031.7-109,1581.7-372.6C7607.4,2629.9,8413.5,1646.3,8672,538.7l45.6-197.7l116.6,15.2c63.4,10.1,197.7,22.8,299.1,32.9c98.9,7.6,182.5,22.8,182.5,32.9s-30.4,136.9-65.9,281.4c-329.5,1305.4-1231.9,2400.4-2451.1,2975.8c-669.2,314.3-1399.2,468.9-2088.7,438.5l-289-12.7l58.3,65.9c352.3,387.8,408.1,461.3,372.6,494.3c-114.1,109-403,344.7-420.8,344.7C4421.2,5010,4155.1,4713.4,3845.8,4351z"/><path d="M1478.3,2781.9c-425.8-50.7-783.2-98.8-790.8-106.5c-20.3-17.7,38-534.8,60.8-562.7c10.1-10.2,162.2-2.5,342.2,17.7c180,22.8,329.5,35.5,332.1,33c2.5-2.5-50.7-78.6-119.1-169.8c-1090-1437.2-1198.9-3475.2-266.2-5029c172.4-286.4,430.9-628.6,595.7-788.3l103.9-98.9l205.3,205.3l205.3,205.3l-180,207.9c-446.1,517.1-747.8,1125.4-894.8,1809.8c-76,347.2-81.1,1153.3-12.7,1485.4C1179.2,558.9,1415,1116.6,1724.2,1550c83.6,119.1,159.7,215.4,167.3,215.4c7.6,0,22.8-144.5,32.9-321.9c10.1-180,22.8-362.5,30.4-408.1l15.2-81.1l271.2,15.2c147,10.1,278.8,25.3,291.5,35.5c17.8,17.8-60.8,1371.3-101.4,1743.9C2411.1,2908.7,2515.1,2906.1,1478.3,2781.9z"/><path d="M8111.8-1136.8c-446.1-200.3-826.3-372.6-844.1-385.3c-27.9-15.2-10.1-78.6,83.6-291.5l119.1-268.7l283.9,126.7c408.1,185,451.2,202.8,461.3,190.1c20.3-20.3-205.3-448.7-365-689.5c-220.5-334.6-712.3-831.4-1044.3-1049.4c-463.9-309.2-1008.8-532.3-1520.9-628.6c-375.1-68.5-1095-60.8-1444.8,15.2c-415.7,91.3-375.1,109-468.9-207.9c-55.8-185-73.5-278.8-53.2-283.9c98.9-35.5,367.5-91.2,572.9-124.2c552.6-86.2,1054.5-73.5,1609.6,38c1361.2,276.3,2580.4,1221.8,3168.5,2463.8c63.4,134.3,121.7,245.9,126.7,245.9c2.5,0,55.8-121.7,114.1-271.2c60.8-152.1,119.2-291.5,129.3-316.9c20.3-35.5,50.7-30.4,289,63.4c147,58.3,266.1,119.1,266.1,131.8c0,48.2-628.6,1594.4-648.9,1602C8933.1-774.4,8558-934,8111.8-1136.8z"/></g></g>
</svg>